<?xml version="1.0" encoding="UTF-8" standalone="no"?>
<!-- Created with Inkscape (http://www.inkscape.org/) -->

<svg
   xmlns:dc="http://purl.org/dc/elements/1.1/"
   xmlns:cc="http://creativecommons.org/ns#"
   xmlns:rdf="http://www.w3.org/1999/02/22-rdf-syntax-ns#"
   xmlns:svg="http://www.w3.org/2000/svg"
   xmlns="http://www.w3.org/2000/svg"
   xmlns:xlink="http://www.w3.org/1999/xlink"
   xmlns:sodipodi="http://sodipodi.sourceforge.net/DTD/sodipodi-0.dtd"
   xmlns:inkscape="http://www.inkscape.org/namespaces/inkscape"
   width="744.09448819"
   height="1052.3622047"
   id="svg2"
   version="1.1"
   inkscape:version="0.48.4 r9939"
   sodipodi:docname="New document 1">
  <defs
     id="defs4">
    <linearGradient
       id="linearGradient3782">
      <stop
         id="stop3784"
         offset="0"
         style="stop-color:#0043ff;stop-opacity:1;" />
      <stop
         style="stop-color:#7f7f0f;stop-opacity:0.74901961;"
         offset="0.42438236"
         id="stop3786" />
      <stop
         style="stop-color:#ff0000;stop-opacity:0.49803922;"
         offset="0.77116972"
         id="stop3788" />
      <stop
         id="stop3790"
         offset="1"
         style="stop-color:#ff0000;stop-opacity:0;" />
    </linearGradient>
    <linearGradient
       id="linearGradient3756">
      <stop
         style="stop-color:#0043ff;stop-opacity:1;"
         offset="0"
         id="stop3758" />
      <stop
         id="stop3780"
         offset="0.28082192"
         style="stop-color:#7f7f0f;stop-opacity:0.74901961;" />
      <stop
         id="stop3778"
         offset="0.5"
         style="stop-color:#ff0000;stop-opacity:0.49803922;" />
      <stop
         style="stop-color:#ff0000;stop-opacity:0;"
         offset="1"
         id="stop3760" />
    </linearGradient>
    <radialGradient
       inkscape:collect="always"
       xlink:href="#linearGradient3756"
       id="radialGradient3762"
       cx="347.89583"
       cy="238.54293"
       fx="347.89583"
       fy="238.54293"
       r="30.048116"
       gradientTransform="matrix(1,0,0,4.069444,0,-732.19418)"
       gradientUnits="userSpaceOnUse" />
    <radialGradient
       inkscape:collect="always"
       xlink:href="#linearGradient3782"
       id="radialGradient3774"
       cx="344.24057"
       cy="289.31052"
       fx="344.24057"
       fy="289.31052"
       r="59.93745"
       gradientTransform="matrix(1,0,0,2.1131307,0,-257.65432)"
       gradientUnits="userSpaceOnUse"
       spreadMethod="reflect" />
    <filter
       id="filter3792"
       inkscape:label="Fuzzy Glow"
       inkscape:menu="Shadows and Glows"
       inkscape:menu-tooltip="Overlays a semi-transparent shifted copy to a blurred one"
       color-interpolation-filters="sRGB">
      <feOffset
         id="feOffset3794"
         dx="4"
         dy="4"
         result="result11"
         in="SourceGraphic" />
      <feGaussianBlur
         id="feGaussianBlur3796"
         stdDeviation="4"
         result="result8" />
      <feComposite
         id="feComposite3798"
         in2="result8"
         result="result9"
         in="SourceGraphic"
         operator="in" />
      <feBlend
         id="feBlend3800"
         in2="result8"
         in="result9"
         mode="darken" />
    </filter>
  </defs>
  <sodipodi:namedview
     id="base"
     pagecolor="#ffffff"
     bordercolor="#666666"
     borderopacity="1.0"
     inkscape:pageopacity="0.0"
     inkscape:pageshadow="2"
     inkscape:zoom="0.98994949"
     inkscape:cx="229.79496"
     inkscape:cy="760.55095"
     inkscape:document-units="px"
     inkscape:current-layer="layer1"
     showgrid="false"
     inkscape:window-width="1871"
     inkscape:window-height="1056"
     inkscape:window-x="49"
     inkscape:window-y="24"
     inkscape:window-maximized="1" />
  <metadata
     id="metadata7">
    <rdf:RDF>
      <cc:Work
         rdf:about="">
        <dc:format>image/svg+xml</dc:format>
        <dc:type
           rdf:resource="http://purl.org/dc/dcmitype/StillImage" />
        <dc:title></dc:title>
      </cc:Work>
    </rdf:RDF>
  </metadata>
  <g
     inkscape:label="Layer 1"
     inkscape:groupmode="layer"
     id="layer1">
    <rect
       style="fill:#000000;fill-opacity:1;stroke:none"
       id="rect3776"
       width="108.21429"
       height="271.42856"
       x="294.28571"
       y="94.862183"
       ry="54.107143" />
    <path
       style="font-size:medium;font-style:normal;font-variant:normal;font-weight:normal;font-stretch:normal;text-indent:0;text-align:start;text-decoration:none;line-height:normal;letter-spacing:normal;word-spacing:normal;text-transform:none;direction:ltr;block-progression:tb;writing-mode:lr-tb;text-anchor:start;baseline-shift:baseline;color:#000000;fill:url(#radialGradient3774);fill-opacity:1;fill-rule:nonzero;stroke:#000000;stroke-width:3;marker:none;visibility:visible;display:inline;overflow:visible;filter:url(#filter3792);enable-background:accumulate;font-family:Sans;-inkscape-font-specification:Sans;stroke-opacity:1;stroke-miterlimit:4;stroke-dasharray:72,3;stroke-linejoin:round;stroke-linecap:round;stroke-dashoffset:0"
       d="m 330.90625,104.8125 4,16.46875 -4,-0.4375 -4.625,-3.8125 1.09375,3.40625 -3.25,-0.375 6.6875,14.0625 -1.75,5.53125 -2.875,1.71875 0.625,3.53125 -21.65625,19.3125 18.03776,7.88594 -16.53776,1.95781 19.28125,13.09375 c -0.0222,0.19898 0.0389,0.47144 0.0312,0.6875 l -11.625,-1.75 11.4375,12.21875 -3.28125,-0.40625 -0.84375,-0.25 0.0625,0.15625 -0.65625,-0.0625 1.09375,1.34375 1.40625,3.9375 -6.84375,1.53125 8.65625,7.5625 -2.1875,3.75 1.21875,0.21875 -2.625,4.5625 2.71875,0.75 -1.1875,4.28125 c -0.30505,1.08246 -0.60148,2.46365 -0.6875,4.03125 L 305.1562,217.875 l 16.65625,35.84375 -0.40625,0.40625 0.34375,0.34375 -12.1875,14.625 8.71875,0.40625 -5.25,11.21875 9.375,-6.25 2.09375,8.4375 c 0.17999,0.72855 0.68403,1.74654 1.03125,2.625 l -0.0625,0.28125 0.25,0.15625 c 0.24124,0.55614 0.24224,0.93706 0.625,1.59375 0.26664,0.45746 0.82614,1.05195 1.21875,1.59375 -0.13724,1.50426 0.0307,3.37707 0.625,5.5625 -0.021,0.11654 -0.042,0.16133 -0.0625,0.28125 -0.14037,0.82074 -0.0473,1.81803 0.0625,2.8125 -0.67371,1.61769 -1.05165,3.34141 -1.21875,5.09375 l -5.6875,5.84375 10.875,9.75 c 0.009,0.008 0.0222,0.0231 0.0312,0.0312 0.26845,1.09886 0.58606,1.99237 0.90625,2.65625 -0.64044,0.20525 -1.34359,0.43742 -1.34375,0.4375 -4.1e-4,1.9e-4 -1.48979,0.80454 -2,1.15625 -0.31106,0.21443 -0.51837,0.37682 -0.75,0.5625 -0.92266,0.23143 -1.96238,0.59312 -3.34375,1.28125 -2.18811,1.09001 -5.19363,3.58407 -6.6875,7.125 -1.49387,3.54093 -1.20886,7.05976 -0.625,9.1875 0.16543,0.60286 0.32832,0.74281 0.5,1.21875 l 0.25,1.28125 c 0.0698,0.37787 0.15129,0.84634 0.28125,1.375 l -0.8125,1.09375 1.96875,1.65625 c 0.0927,0.17737 0.0794,0.24362 0.1875,0.4375 0.71746,1.28716 1.84252,3.18767 4.8125,5.0625 0.0154,0.01 0.0158,0.0216 0.0312,0.0312 l 1.3125,2.0625 4.5625,1.125 c 0.92129,0.62972 2.09161,1.4437 5.75,1.78125 2.15713,0.19903 5.83477,0.0488 9.46875,-2.53125 0.86566,-0.61461 1.61057,-1.37114 2.28125,-2.15625 0.1334,-0.0428 0.34275,-0.0164 0.46875,-0.0625 0.44577,-0.16296 0.68468,-0.35551 1.0625,-0.53125 -0.35387,0.10777 -0.86243,0.18144 -1.28125,0.28125 0.16281,-0.20198 0.28689,-0.4169 0.4375,-0.625 0.83973,-0.36352 1.90701,-0.9728 3.1875,-2.0625 1.1045,-0.38114 1.7219,-0.85024 2.4375,-1.3125 -0.02,0.0289 -0.013,0.0928 -0.0312,0.125 0.0531,-0.0574 0.0747,-0.10053 0.125,-0.15625 0.42674,-0.27943 1.10141,-0.5854 1.40625,-0.8125 3.11096,-2.31762 3.25954,-3.32736 3.8125,-4.21875 0.55296,-0.89139 0.9179,-1.55015 1.25,-2.3125 0.3321,-0.76235 0.64686,-1.47021 1,-3.03125 0.17657,-0.78052 0.43218,-1.69337 0.34375,-3.84375 -0.0834,-2.0275 -0.60668,-7.15978 -6.125,-10.9375 l 0.21875,-0.4375 c 0.56844,-0.78587 1.04948,-1.61297 1.46875,-2.46875 l 1.96875,1.0625 L 360.625,317 c 0.11988,-0.13779 0.3385,-0.31326 0.4375,-0.4375 1.68317,-2.11226 2.15413,-3.52795 2.59375,-4.9375 0.23435,-0.75138 0.25173,-1.68969 0.375,-2.5 0.36849,-0.97241 0.74599,-1.89805 0.9375,-2.875 1.68462,-1.58109 3.24201,-3.65416 4.25,-7 0.80607,-2.67561 0.5977,-5.64862 -0.0625,-8.28125 -0.011,0.64223 -0.0621,1.35073 -0.25,2.1875 7.2e-4,-0.01 -7e-4,-0.0212 0,-0.0312 0.13288,-0.74976 0.23222,-1.46482 0.25,-2.15625 -0.002,-0.01 0.002,-0.0214 0,-0.0312 -0.0684,-0.27062 -0.10829,-0.55121 -0.1875,-0.8125 0.01,-0.23573 0.0343,-0.48481 0.0312,-0.71875 0.079,0.45352 0.18464,0.74509 0.1875,1.34375 0.003,-0.34625 0.15098,-0.7733 0.125,-1.09375 -0.0507,-0.62478 -0.19476,-1.05165 -0.28125,-1.59375 -0.0427,-0.30834 -0.11212,-0.65179 -0.1875,-0.96875 -0.71864,-3.3275 -2.15656,-5.14562 -4.03125,-6.71875 -0.75387,-0.78034 -1.47212,-1.51313 -2.5,-2.1875 0.0106,-0.82887 -0.17301,-1.76123 -0.4375,-2.75 0.64412,-0.79773 1.84367,-2.28112 1.84375,-2.28125 1.9e-4,-3.1e-4 0.89497,-1.87404 1.21875,-2.6875 l 0.3125,-0.21875 -0.0625,-0.5625 c 0.0772,-0.28039 0.177,-0.59176 0.21875,-0.78125 0.13654,-0.6197 0.18572,-0.93963 0.21875,-1.1875 0.26423,-1.98299 0.11878,-1.46252 0.125,-1.71875 0.005,-0.19217 -0.002,-0.45828 0,-0.65625 l 4.40625,-2 L 367,258.5625 c 0.0268,-0.18086 0.0671,-0.26978 0.0937,-0.5 0.0163,-0.14076 0.0151,-0.45089 0.0312,-0.625 l 9.21875,-2.875 -6,-6.3125 c 0.0354,-0.50116 0.18086,-1.08198 0.15625,-1.53125 l 0.875,-0.78125 -1.21875,-1.125 c -0.10423,-0.44338 -0.19178,-0.82864 -0.3125,-1.1875 l 22,-2.09375 -6.53125,-4.25 -12.28125,-11.5 c 0.0802,-0.57488 0.16009,-1.12073 0.1875,-1.625 0.094,-1.73016 0.64011,-3.34747 -0.4375,-5.90625 l 10.09375,-6.90625 9.78125,4.46875 -4.65625,-8 2.036,-8.79299 -6.661,-3.23826 6.62817,-7.58867 -14.03442,-7.09883 c 0.0479,-0.10978 0.078,-0.22958 0.125,-0.34375 L 384.75,175.15625 380.78125,172 385.875,170.59375 376.25,161.625 c 0.46166,-1.16643 1.2924,-2.34079 0.96875,-6.53125 -0.0739,-0.95733 -0.36029,-2.28361 -0.84375,-3.6875 L 389.40625,148.5625 377.5,141.75 378.59375,139.53125 376,139.84375 c -0.77345,-3.02529 -1.68573,-4.48924 -2.59375,-5.46875 -0.27812,-1.31396 -0.74951,-2.73412 -1.71875,-4.46875 -1.48953,-2.66579 -4.58975,-5.46493 -7.8125,-6.59375 -0.40934,-0.14338 -0.73083,-0.11692 -1.125,-0.21875 -0.31888,-0.23357 -0.56247,-0.5527 -0.90625,-0.75 -1.81023,-1.03888 -3.32182,-1.49752 -4.6875,-1.75 l -2.4375,-9.5 -6.75,10.09375 z m 44.625,49.28125 c 0.073,0.26224 0.20372,0.59772 0.25,0.8125 0.46934,2.17807 0.30842,3.15548 0.25,3.84375 -0.0856,1.00885 -0.1243,0.96037 -0.15625,1.03125 -0.20421,-0.77155 -0.70229,-1.6148 -1.09375,-2.4375 0.34738,-1.0249 0.58928,-2.10117 0.75,-3.25 z m -50.03125,27.9375 1.09375,2.65625 c -0.0344,0.0734 -0.0602,0.1732 -0.0937,0.25 -0.29258,-0.66106 -0.59886,-1.12914 -0.875,-1.96875 -0.0797,-0.24244 -0.0666,-0.65306 -0.125,-0.9375 z M 372.4375,219 c 0.038,0.17783 0.0367,0.39612 0.0625,0.59375 -0.0276,-0.1809 -0.0294,-0.42841 -0.0625,-0.59375 z m -5.625,38.5625 c -8.1e-4,0.004 2.5e-4,0.0891 0,0.0937 l -0.0312,0 c 0.0169,-0.0357 0.0147,-0.0584 0.0312,-0.0937 z m -1.71875,4.1875 c 0.0983,0.30607 0.13872,0.50475 0.1875,0.6875 -0.17733,0.55236 -0.34319,1.08454 -0.625,1.6875 l -0.0937,-0.96875 c 0.22471,-0.43159 0.35044,-0.93828 0.53125,-1.40625 z m 0.40625,1.875 c 0.009,0.14331 0.11533,0.61014 0.0937,0.625 l -0.4375,-0.0312 c 0.11959,-0.19668 0.25868,-0.4354 0.34375,-0.59375 z m -27.28125,11.9375 0.28125,0.125 c 0.0351,0.0355 0.058,0.0895 0.0937,0.125 -0.12762,-0.0814 -0.23859,-0.15516 -0.375,-0.25 z m -2.5625,0.34375 4.09375,0.9375 c 0.0238,0.0197 0.0385,0.0428 0.0625,0.0625 -0.61767,-0.0466 -1.24024,-0.0459 -1.84375,-0.1875 -0.83696,-0.19637 -1.58295,-0.49703 -2.3125,-0.8125 z m 2.46875,1.96875 c 0.38728,0.0719 0.77716,0.25703 1.15625,0.28125 0.62841,0.0402 1.13787,-0.008 1.6875,-0.0312 l -0.21875,0.78125 -0.84375,0.21875 c -0.44182,-0.19243 -0.82169,-0.30378 -1.375,-0.625 -0.20533,-0.1192 -0.49189,-0.44066 -0.71875,-0.59375 l 0.3125,-0.0312 z m -5.28125,0.4375 0.0625,0.375 c -0.0602,-0.0694 -0.0965,-0.17742 -0.15625,-0.25 0.004,-0.0226 -0.004,-0.0747 0,-0.0937 l 0.0937,-0.0312 z m -0.1875,0.0312 0.0625,0 c -0.003,0.0137 -0.0279,0.0169 -0.0312,0.0312 -0.009,-0.0109 -0.0224,-0.0202 -0.0312,-0.0312 z m 1.46875,0.375 c 1.46409,1.16534 2.96369,2.12403 4.25,2.53125 0.17277,0.0547 0.27059,0.0439 0.4375,0.0937 l 0.0312,0.0625 -1.375,0.625 c -0.12574,-0.0609 -0.11195,-0.0231 -0.25,-0.0937 -0.70814,-0.36237 -1.93908,-1.00254 -3.21875,-2.09375 0.003,-0.35803 0.0899,-0.7457 0.125,-1.125 z m -1.5,0.4375 c 0.26072,0.55457 0.26002,0.57933 0.53125,1.15625 0.006,0.005 0.0253,-0.005 0.0312,0 0.006,0.0128 -0.006,0.0184 0,0.0312 l 0,0.0312 c 0.0982,0.20885 0.12131,0.19899 0.21875,0.40625 0.016,0.18434 0.0413,0.32749 0.0625,0.5 -0.24969,-0.34416 -0.74354,-0.95985 -0.75,-0.96875 -1.3e-4,-1.8e-4 0,-0.0312 0,-0.0312 0,10e-6 -0.0283,-0.17506 -0.0312,-0.1875 -0.004,-0.0189 -0.0518,-0.23625 -0.0625,-0.28125 0.16363,0.15348 0.22209,0.20759 0.375,0.34375 -0.1298,-0.31459 -0.26005,-0.56502 -0.375,-0.9375 0.005,-0.0383 -0.005,-0.0263 0,-0.0625 z m -7.28125,0.15625 1.03125,0.9375 c -0.16341,0.90875 -0.21215,1.6592 -0.1875,2.375 l -0.3125,1.34375 c -0.5699,-1.66683 -0.69564,-3.22232 -0.53125,-4.65625 z m 8.5625,1.5 c 1.46901,1.05766 2.41563,1.43781 3.0625,1.6875 0.15962,0.0616 0.1387,0.0405 0.28125,0.0937 -0.18221,0.10658 -0.49198,0.17282 -0.65625,0.28125 -0.35426,0.23383 -0.54095,0.42589 -0.84375,0.65625 -0.46997,-0.31202 -0.94695,-0.76552 -1.5,-1.28125 -0.18245,-0.4765 -0.27069,-0.88631 -0.375,-1.3125 -0.003,-0.0372 0.034,-0.0874 0.0312,-0.125 z m 3.78125,2.71875 0.375,1.28125 c -0.30617,-0.10531 -0.34955,-0.0652 -1.1875,-0.5625 0.23512,-0.2595 0.5503,-0.46725 0.8125,-0.71875 z m -3.78125,0.75 0.375,0.46875 c -0.009,0.009 -0.022,0.0222 -0.0312,0.0312 -0.084,-0.15065 -0.23908,-0.2848 -0.3125,-0.4375 -0.0112,-0.0233 -0.0202,-0.0393 -0.0312,-0.0625 z m -0.125,0.6875 c 0.0341,0.0297 0.0891,0.0631 0.125,0.0937 -0.005,0.005 -0.0265,-0.005 -0.0312,0 -0.0256,-0.0355 -0.0686,-0.0582 -0.0937,-0.0937 z m 33.78125,0.375 c 0.0339,0.10518 0.166,0.39823 0.1875,0.46875 l -0.40625,0.125 c -0.0598,-0.12996 -0.12126,-0.27192 -0.1875,-0.40625 z M 337.125,285.5 c 0.24578,0.18514 0.55794,0.36676 0.96875,0.59375 -0.007,0.0123 -0.0242,0.0189 -0.0312,0.0312 -0.0694,-0.0366 -0.18473,-0.0565 -0.25,-0.0937 -0.25185,-0.1675 -0.26759,-0.18918 -0.5,-0.34375 -0.0485,-0.0412 -0.13457,-0.14022 -0.1875,-0.1875 z m -7.40625,2.90625 0.53125,0.34375 c -0.0338,0.0558 -0.0915,0.098 -0.125,0.15625 -0.0417,-0.049 -0.14829,-0.10831 -0.1875,-0.15625 -0.10843,-0.13256 -0.12069,-0.21686 -0.21875,-0.34375 z m 1.625,18.46875 0.25,1.5 c 0.003,0.0187 -0.003,0.0438 0,0.0625 -0.28281,-0.53881 -0.30745,-0.88452 -0.46875,-1.5 z m 1.28125,2.0625 c 0.0594,0.12366 0.0569,0.21496 0.125,0.34375 -0.0116,0.0247 -0.0197,0.0375 -0.0312,0.0625 -0.0389,-0.14787 -0.067,-0.26999 -0.0937,-0.40625 z m 0.25,0.625 c 0.006,0.01 0.0256,0.0214 0.0312,0.0312 -0.0101,0.0253 -0.0525,0.0372 -0.0625,0.0625 0.015,-0.0344 0.0163,-0.0605 0.0312,-0.0937 z m 0.25,0.3125 c 0.5499,0.89845 1.3446,1.91295 2.53125,3 -1.27912,-0.85749 -1.97582,-1.68287 -2.5,-2.34375 -0.0557,-0.13076 -0.0787,-0.25154 -0.125,-0.375 0.0395,-0.0935 0.052,-0.18783 0.0937,-0.28125 z m -4.15625,2.40625 c 0.77854,1.36464 1.68219,2.63039 2.78125,3.6875 0.005,0.004 -0.005,0.0268 0,0.0312 0.0305,0.34467 -0.0235,0.60407 0.0312,0.96875 0.0303,0.20165 0.14685,0.36478 0.1875,0.5625 -1.46391,-1.55355 -2.43711,-3.33477 -3,-5.25 z m 16.8125,0.53125 0.78125,0.125 0.0937,0.0937 c -0.28007,0.0314 -0.56399,0.0381 -0.875,0.0312 l 0,-0.25 z m -13.65625,3.46875 c 0.76798,0.69697 1.5606,1.35412 2.4375,1.90625 1.16288,0.7322 2.64616,1.30811 4.25,1.75 -0.52343,0.22279 -1.02321,0.31359 -1.53125,0.59375 -0.41784,-0.004 -0.56565,0.003 -0.875,0 -1.51269,-0.65406 -2.77778,-1.48 -3.8125,-2.4375 -0.16597,-0.61578 -0.37776,-1.24397 -0.46875,-1.8125 z m 22.59375,2.53125 0.90625,0.5 c -0.75009,0.34944 -1.67003,0.68079 -2.96875,0.9375 -0.12256,-0.0739 -0.17986,-0.14417 -0.3125,-0.21875 0.92125,-0.37593 1.71917,-0.76861 2.375,-1.21875 z m -21.84375,0.375 c 0.48921,0.48319 1.12161,0.97193 1.875,1.5 -0.23622,0.0757 -0.54475,0.14657 -1.0625,0.3125 -0.29286,-0.61515 -0.60257,-1.19697 -0.8125,-1.8125 z m 24.0625,0.8125 1.3125,0.71875 c -0.11987,0.27243 -0.2014,0.54136 -0.34375,0.8125 -0.32678,0.52764 -0.60931,1.17898 -0.90625,1.5625 -0.12036,0.17044 -0.25284,0.27749 -0.375,0.4375 -0.18691,-0.11869 -0.2707,-0.25962 -0.46875,-0.375 -0.01,-0.006 -0.0217,0.006 -0.0312,0 -0.44812,-0.54172 -0.79845,-1.06297 -2.03125,-1.96875 1.03374,-0.34218 2.01264,-0.69512 2.84375,-1.1875 z m -15.96875,0.59375 -0.125,0.125 c -0.0146,-0.007 -0.11559,-0.0583 -0.125,-0.0625 0.0827,-0.0322 0.16705,-0.032 0.25,-0.0625 z m 3.4375,0.65625 c 0.0639,0.009 0.12339,0.0228 0.1875,0.0312 -0.0767,-0.005 -0.14225,0.004 -0.21875,0 l 0.0312,-0.0312 z m 9.09375,0.15625 c 1.00991,0.58272 1.3465,1.00557 1.59375,1.34375 -0.60778,-0.29376 -1.19534,-0.46297 -1.78125,-0.65625 -0.17905,-0.14892 -0.26256,-0.31354 -0.46875,-0.46875 0.23755,-0.053 0.42757,-0.15481 0.65625,-0.21875 z m -18.5625,0.6875 c -0.16956,0.13814 -0.30813,0.29332 -0.46875,0.4375 -0.0679,-0.1094 -0.0915,-0.23315 -0.15625,-0.34375 0.10838,-0.03 0.15248,-0.0355 0.25,-0.0625 0.12607,-0.009 0.24457,-0.0245 0.375,-0.0312 z m 3.09375,0.0937 c 0.12579,0.0208 0.24836,0.0374 0.375,0.0625 -0.39559,0.16579 -0.87752,0.31868 -1.21875,0.5 0.0188,-0.0157 0.0123,-0.0468 0.0312,-0.0625 0.25513,-0.2109 0.54601,-0.31435 0.8125,-0.5 z m -3.96875,0.0625 c 0.0943,0.13731 0.18335,0.27287 0.28125,0.40625 -0.0489,0.0451 -0.0771,0.11063 -0.125,0.15625 -0.10265,-0.1463 -0.20137,-0.31272 -0.3125,-0.5 0.078,-0.0216 0.0807,-0.0416 0.15625,-0.0625 z m -0.28125,0.0937 c 0.14673,0.24869 0.24036,0.32129 0.375,0.53125 -0.1429,0.13807 -0.30395,0.26353 -0.4375,0.40625 -0.27451,-0.0357 -0.35449,-0.0993 -0.71875,-0.125 -0.44847,-0.0316 -1.14664,-0.0795 -1.84375,-0.0937 -1.8e-4,9e-5 1.33462,-0.36155 2.625,-0.71875 z m 5.46875,0.25 -1.5,1.71875 c -0.0188,-0.008 -0.0436,-0.0237 -0.0625,-0.0312 -0.36858,-0.14805 -0.89269,-0.29542 -1.34375,-0.4375 0.53012,-0.31647 0.91802,-0.63948 1.5625,-0.9375 0.39774,-0.18392 0.91028,-0.1709 1.34375,-0.3125 z m 6.96875,0.4375 c 0.87056,-0.10714 1.90251,-0.0474 2.96875,0.0312 l -0.8125,1.625 c -0.37246,-0.13707 -0.7327,-0.2655 -1.125,-0.375 -0.48132,-0.52238 -1.09367,-1.21869 -1.09375,-1.21875 0,0 -0.0611,-0.0306 -0.0625,-0.0312 0.0471,-0.006 0.0773,-0.0254 0.125,-0.0312 z M 333.375,323.625 c -0.014,0.0164 -0.0486,0.0148 -0.0625,0.0312 -0.90212,1.06662 -1.40296,2.0967 -1.875,3.09375 -1.75914,0.21815 -3.16688,0.60969 -4.25,1.125 l -1.53125,-0.15625 c 0.0566,-0.0817 0.0558,-0.0916 0.125,-0.1875 0.19428,-0.26918 0.43422,-0.59794 0.84375,-1.0625 0.40953,-0.46456 2.09448,-1.93805 2.09375,-1.9375 -1.3e-4,10e-5 0.47354,-0.28854 0.875,-0.53125 0.47274,-0.0547 1.11121,-0.20701 1.4375,-0.25 1.24321,-0.16381 1.88221,-0.14873 2.34375,-0.125 z m 10.21875,1 c 0.16661,-1.6e-4 0.33487,-0.005 0.5,0 0.4811,0.31632 0.92543,0.62146 1.34375,0.96875 -0.61855,-0.089 -1.31434,-0.10711 -2.03125,-0.0937 l 0.1875,-0.875 z m -16.5,0.125 -3.5,2.53125 c 1.33345,-1.24817 2.49228,-2.05857 3.5,-2.53125 z m 6.96875,0.0312 c -0.11972,0.18352 -0.20483,0.34976 -0.3125,0.53125 -0.0863,0.0856 -0.13929,0.1675 -0.21875,0.25 0.19163,-0.25582 0.3205,-0.53749 0.53125,-0.78125 z m -7.15625,0.65625 c -0.64349,0.78838 -1.04907,1.34648 -1.21875,1.625 -0.30115,0.49431 -0.2271,0.40663 -0.34375,0.625 l -0.25,-0.0312 c 0.36047,-0.52754 0.6132,-1.00233 1.375,-1.75 0.12236,-0.12008 0.29855,-0.31416 0.4375,-0.46875 z m 19.25,0.0625 c 0.15843,0.12357 0.19729,0.13576 0.34375,0.25 -0.0194,-0.004 -0.0431,0.004 -0.0625,0 -0.0897,-0.0878 -0.18911,-0.1637 -0.28125,-0.25 z m -12.96875,0.84375 c -0.0607,0.12237 -0.16336,0.25556 -0.21875,0.375 -0.0419,-7e-4 -0.0834,-0.031 -0.125,-0.0312 0.0961,-0.11788 0.23813,-0.22522 0.34375,-0.34375 z m 0.78125,0.28125 -0.0312,0.125 c -0.0214,-0.002 -0.0411,0.002 -0.0625,0 0.0244,-0.0447 0.0686,-0.0802 0.0937,-0.125 z m -1.59375,0.75 c 0.0936,-0.001 0.18725,-3.3e-4 0.28125,0 -0.15274,0.37933 -0.24299,0.67859 -0.34375,1 l -0.28125,-0.0312 c 0.14719,-0.3392 0.16418,-0.61141 0.34375,-0.96875 z m 1.15625,0.0312 c 0.1052,0.006 0.20727,-0.008 0.3125,0 l -0.0937,0.625 c -0.10715,0.11204 -0.34404,0.27142 -0.4375,0.375 -0.024,0.0266 -0.008,0.0362 -0.0312,0.0625 l -0.1875,-0.0312 c 0.13391,-0.36761 0.25351,-0.6449 0.4375,-1.03125 z m -2.5,0.0312 c -0.12159,0.29616 -0.15623,0.49971 -0.25,0.78125 L 328.40625,328 c 0.0427,-0.015 0.0505,-0.0476 0.0937,-0.0625 0.76496,-0.26389 1.64037,-0.40788 2.53125,-0.5 z m -8.03125,0.3439 -0.5,3.625 c -0.16155,0.18292 -0.34825,0.37074 -0.46875,0.53125 0.10104,-0.12877 0.32005,-0.27529 0.4375,-0.40625 l -0.28125,2.125 c -0.12627,0.92481 -0.37308,2.07307 0.0937,4.65625 -0.14943,0.4074 -0.38208,0.83504 -0.46875,1.21875 -0.20116,0.89061 -0.14,1.47035 -0.1875,2.1875 l -1.3125,1.8125 c -0.44557,-0.91633 -0.77425,-2.08854 -1.03125,-3.5 0.0424,-0.58715 0.0296,-1.2952 0.125,-1.78125 0.16896,-0.86119 0.36277,-1.66874 1.03125,-3.09375 0.33424,-0.71251 0.55965,-1.90086 1.59375,-3.21875 -0.35142,0.46808 -0.65245,0.88037 -0.875,1.21875 l -2.09375,3.21875 c 0.33902,-3.15489 1.92155,-6.55489 3.8125,-8.5 0.0434,-0.0446 0.082,-0.0501 0.125,-0.0937 z m 1.90625,0.125 -0.28125,1.1875 -0.15625,0.34375 -0.0937,0.25 c -0.3703,0.29013 -0.53641,0.49991 -0.8125,0.75 0.25409,-0.6034 0.50459,-1.34537 0.78125,-1.8125 0.12505,-0.21115 0.42505,-0.50673 0.5625,-0.71875 z m 13.8125,0.59375 c 0.12081,0.0478 0.2268,0.10572 0.34375,0.15625 l 0.0312,0.0937 c -0.13323,-0.0561 -0.32285,-0.0726 -0.46875,-0.125 l 0.0937,-0.125 z m 20.84375,0.4375 c 0.60463,0.76941 1.06454,1.51668 1.34375,2.125 2.3721,5.16814 1.23429,5.79385 1.1875,6.375 l -2.53125,-0.21875 c 0.19906,-0.81826 0.53496,-1.76756 0.59375,-2.34375 0.41549,-4.07196 -0.26371,-4.95895 -0.59375,-5.9375 z m -21.21875,0.125 c 0.17539,0.0504 0.44736,0.0893 0.59375,0.125 l 0,0.0312 c -0.20775,-0.044 -0.42785,-0.0919 -0.625,-0.125 l 0.0312,-0.0312 z m -4.8125,0.5625 -0.0312,0.21875 c -0.13739,0.14274 -0.27191,0.31652 -0.40625,0.46875 -0.16998,0.0665 -0.33234,0.14598 -0.5,0.21875 0.0249,-0.13769 0.0629,-0.29195 0.0937,-0.4375 0.1036,-0.13921 0.28892,-0.29205 0.40625,-0.4375 0.13545,-0.0201 0.29608,-0.0172 0.4375,-0.0312 z m -1.59375,0.1875 c -0.0706,0.34704 -0.11673,0.61995 -0.15625,0.90625 -0.0596,0.10982 -0.19835,0.27286 -0.25,0.375 -0.21736,0.11459 -0.4454,0.22041 -0.65625,0.34375 0.0866,-0.41475 0.39055,-0.95523 0.53125,-1.40625 0.21509,-0.0716 0.29867,-0.1509 0.53125,-0.21875 z m -7.53125,0.0312 c 0.0129,-0.008 0.0495,0.008 0.0625,0 l -0.625,2.625 c 0.0181,-0.11082 0.0151,-0.37461 0.0312,-0.46875 0.14425,-0.8427 0.24477,-1.13262 0.3125,-1.375 0.54184,-1.93904 0.25636,-0.81184 0.21875,-0.71875 -0.0188,0.0465 -0.0532,0.089 0,-0.0312 0.002,-0.003 -0.002,-0.0276 0,-0.0312 z m -0.0937,0.0625 -0.0625,0.1875 c -0.15413,0.43061 -0.25922,0.72722 -0.40625,1.1875 -0.0735,0.23014 -0.15551,0.39229 -0.34375,1.1875 -0.0941,0.3976 -0.31245,0.56523 -0.375,2.90625 -5.5e-4,0.0206 5.5e-4,0.0728 0,0.0937 l -0.375,1.65625 c -0.11162,0.22914 -0.18595,0.43002 -0.28125,0.65625 -0.74813,-3.23069 0.20897,-4.93917 0.53125,-6.0625 0.15125,-0.52721 0.3196,-0.68494 0.46875,-1.0625 0.30297,-0.25257 0.45935,-0.49798 0.84375,-0.75 z m 35.125,0.15625 c 0.0342,0.14522 0.17243,0.41979 0.25,1.84375 0.0388,0.71198 0.17194,1.67911 -0.375,3.9375 -0.0808,0.33351 -0.27349,0.85222 -0.4375,1.3125 l -0.21875,0 c -0.0205,-0.12511 -0.0352,-0.21136 -0.0625,-0.34375 0.81565,-2.83955 0.66717,-5.01101 0.15625,-6.59375 z m -20.75,0.0937 -1.125,4.6875 -0.21875,0.875 -1.25,-0.15625 0.96875,1.34375 -0.8125,3.34375 -0.3125,0.0625 c -0.63598,-1.82023 -0.80664,-3.44147 -0.84375,-4.34375 -0.0619,-1.50522 0.0941,-1.97342 0.21875,-2.5625 l 2.21875,-3.1875 c 0.39521,-0.0201 0.80965,-0.0722 1.15625,-0.0625 z m 19.0625,0.3125 c 0.19882,0.67998 0.52348,1.74946 0.0937,4.53125 -0.004,-1.05162 -0.006,-2.0456 -0.46875,-3.65625 -0.0504,-0.17554 -0.2243,-0.5148 -0.28125,-0.71875 l 0.65625,-0.15625 z m -27.625,0.15625 c -0.005,0.0279 0.004,0.0348 0,0.0625 l -1.28125,2.34375 c -0.90045,0.74441 -1.89817,1.47418 -2.46875,2.25 l -2.125,2.90625 c -0.12397,-0.46414 -0.33565,-1.15618 -0.40625,-1.59375 -0.0423,-0.26212 -0.006,-0.34048 -0.0312,-0.5625 0.099,-0.18236 0.20741,-0.35314 0.3125,-0.53125 0.41778,-0.55512 0.85474,-1.10699 1.34375,-1.65625 0.90667,-1.01838 2.3635,-2.19007 4.65625,-3.21875 z m 3.1875,0.4375 -0.0937,0.65625 c -0.16734,0.2426 -0.47051,0.61787 -0.59375,0.8125 l -0.40625,0.625 c 0.14661,-0.27269 0.71043,-0.78411 0.96875,-1.125 L 332.5,336.6875 c -0.22918,-0.56522 -0.35019,-1.67799 -0.28125,-3.53125 l -0.3125,0.5 c 0.0557,-0.13306 0.23387,-0.35374 0.3125,-0.5 0.017,-0.45572 -0.0602,-0.56608 0,-1.15625 0.005,-0.0448 0.0262,-0.14083 0.0312,-0.1875 0.0617,-0.0959 0.12529,-0.22027 0.1875,-0.3125 0.005,-0.008 -0.005,-0.0236 0,-0.0312 0.29072,-0.14029 0.58852,-0.29161 0.875,-0.40625 z m -1.71875,0.90625 c -0.004,0.10499 6.1e-4,0.15402 0,0.25 -0.40631,0.66724 -0.6375,1.364 -0.90625,2.0625 -0.0216,-0.35818 0.0418,-0.78935 0.0625,-1.1875 0.16628,-0.30163 0.38291,-0.65561 0.59375,-1 0.0817,-0.0489 0.16845,-0.0784 0.25,-0.125 z m -0.78125,0.40625 c -0.023,0.0536 -0.01,0.0735 -0.0312,0.125 0.004,-0.033 -0.004,-0.0605 0,-0.0937 0.001,-0.0117 0.0298,-0.0195 0.0312,-0.0312 z M 331.625,333 c 0.008,0.13171 -0.007,0.31746 0,0.4375 0.0159,0.29267 0.072,0.29442 0.0937,0.53125 l -0.9375,1.46875 c -0.0233,-0.12658 -0.075,-0.21108 -0.0937,-0.34375 0.27383,-0.76283 0.58722,-1.43628 0.9375,-2.09375 z m -1.3125,0.84375 c -0.0753,0.26732 -0.29102,0.71304 -0.34375,0.9375 0.0452,0.32543 0.12615,0.54494 0.1875,0.8125 -0.074,0.27264 -0.0678,0.54042 -0.125,0.8125 -0.0183,-0.36742 -0.19449,-0.90047 -0.1875,-1.25 l -0.4375,1.8125 c -0.0519,-0.58009 0.0448,-1.28347 0.53125,-2.40625 -0.002,-0.0226 0.002,-0.0709 0,-0.0937 8.3e-4,-0.0186 0.0304,-0.0438 0.0312,-0.0625 0.0649,-0.14256 0.26671,-0.40816 0.34375,-0.5625 z m 1.4375,0.375 c 0.10231,0.91799 0.2179,1.74645 0.34375,2.28125 l 0.28125,1.15625 0.6875,2.96875 0.1875,0.1875 -0.0937,0 c -0.0351,-0.0499 -0.0584,-0.13494 -0.0937,-0.1875 -0.33336,-0.49562 -0.67169,-0.75646 -1.0625,-1.65625 -0.24186,-0.55686 -0.62154,-1.41973 -0.9375,-2.4375 0.0831,-0.27028 0.17573,-0.57367 0.25,-0.8125 0.17053,-0.54839 0.3048,-1.0206 0.4375,-1.5 z m -3.9375,0.90625 1.375,2.84375 -0.6875,2.84375 1.59375,2.53125 c 0.0862,0.33637 0.14929,0.75098 0.25,1.03125 0.19643,0.54667 0.39137,0.81877 0.59375,1.25 l -1.71875,-0.0937 c -0.11564,-0.12559 -3.40644,-3.6878 -3.40625,-3.6875 10e-5,1.6e-4 -0.34907,-0.80657 -0.71875,-1.59375 0.51648,-1.65313 1.41593,-3.48704 2.71875,-5.125 z m 6.28125,0.0625 c -0.0939,1.02977 -0.70976,2.05777 0.4375,5.375 l -0.15625,0.0312 c -0.35169,-0.52166 -0.73626,-1.06974 -0.90625,-1.40625 -0.25279,-0.50042 -0.43346,-0.92665 -0.6875,-1.71875 -0.0232,-0.0724 -0.0641,-0.20862 -0.0937,-0.28125 l 1.40625,-2 z m -10.84375,1.875 c 0.0276,0.34871 -0.0158,0.4909 0.0625,0.96875 0.0455,0.27758 0.12222,0.58757 0.25,1.0625 l -0.40625,0.5625 c -0.13801,-0.37226 -0.33901,-0.81607 -0.4375,-1.15625 0.17228,-0.48027 0.31337,-0.96374 0.53125,-1.4375 z m 7.5625,1.40625 1.09375,4.4375 c -0.74206,-1.17537 -0.94642,-2.08182 -1.1875,-2.9375 -0.002,-0.008 0.002,-0.0234 0,-0.0312 -0.008,-0.70491 0.0544,-0.99856 0.0937,-1.46875 z m -8.34375,0.71875 c 0.0645,0.29291 0.18417,0.66344 0.28125,1 l -0.75,1.03125 c 0.0537,-0.35075 0.0693,-0.66685 0.15625,-1.03125 0.0228,-0.14535 0.0662,-0.26676 0.0937,-0.40625 0.0528,-0.19581 0.15728,-0.39621 0.21875,-0.59375 z m 10.9375,2 0.90625,0.625 1.0625,0.96875 0.0312,0.0312 c 0.0801,0.17201 0.26965,0.40614 0.375,0.59375 l -0.0312,0.3125 c -0.70042,-0.56858 -1.3695,-1.12781 -1.8125,-1.65625 -0.17122,-0.20424 -0.36126,-0.65204 -0.53125,-0.875 z m -2.59375,0.1875 0.0312,0.0625 c 0.46338,0.96956 0.91937,2.24974 3.15625,4.375 l -1.6875,-0.0937 c -0.10374,-0.15068 -0.22389,-0.32739 -0.3125,-0.46875 -0.71636,-1.62413 -1.14309,-2.91896 -1.1875,-3.875 z m -6.09375,0.53125 c 0.63044,1.14132 1.37488,2.49985 1.375,2.5 4e-5,5e-5 0.81386,0.63543 1.28125,1 l -0.5,-0.0312 c -0.91397,-0.8501 -1.6772,-1.74598 -2.28125,-2.6875 0.0101,-0.0982 -0.0115,-0.14904 0,-0.25 0.0179,-0.15782 0.0969,-0.36312 0.125,-0.53125 z m -5.40625,1.3125 c 0.15116,0.33143 0.28808,0.8011 0.4375,1.0625 l -0.34375,0.46875 c -0.18099,-0.6856 -0.0878,-1.01479 -0.0937,-1.53125 z m 12.90625,0.0625 3.40625,1.6875 -0.0937,0.9375 -0.75,-0.0312 c -1.11352,-0.86768 -1.97657,-1.74817 -2.5625,-2.59375 z m 26.0625,0.375 1.1875,0.875 c 0.0619,-0.0853 0.0637,0.0343 -0.78125,0.875 -0.18201,0.1811 -0.90143,0.62827 -1.21875,0.90625 0.33325,-0.78554 0.43202,-1.42845 0.6875,-2.25 0.0374,-0.12021 0.0846,-0.28557 0.125,-0.40625 z m -33.71875,0.0625 c 0.28524,0.42701 0.37256,0.7951 0.75,1.25 0.091,0.10962 0.24472,0.20391 0.34375,0.3125 L 324.5,345.21875 c -0.0129,-0.43905 0.0345,-0.97515 0.0625,-1.5 z m 6,0.34375 1,1.59375 -0.34375,0 c -0.24602,-0.50505 -0.46343,-1.02087 -0.65625,-1.59375 z m 22.5625,1.46875 c -0.11304,0.10178 -0.12611,0.14328 -0.25,0.25 -0.12447,0.10722 -0.3598,0.23012 -0.5,0.34375 0.01,-0.0604 0.0539,-0.12834 0.0625,-0.1875 0.23619,-0.11154 0.45553,-0.27938 0.6875,-0.40625 z m 0.53125,0.3125 1.03125,0.625 c -0.23146,0.30119 -0.17938,0.39467 -0.5,0.75 -0.43489,0.48197 -1.33646,1.12218 -2.09375,1.71875 -0.20059,0.0497 -0.38206,0.0827 -0.59375,0.125 0.31666,-0.78035 0.55701,-1.48562 0.71875,-2.1875 0.502,-0.34907 1.04156,-0.6737 1.4375,-1.03125 z M 324.5,346.0625 l 2.15625,0.15625 c 1.88753,1.63179 4.46467,2.94379 7.03125,3.5 l 1.15625,1.3125 c -1.94026,0.47979 -3.06606,0.21108 -3.84375,0.15625 -1.14463,-0.0807 -1.67777,-0.20559 -2.125,-0.3125 -0.89445,-0.21382 -1.26128,-0.3726 -1.65625,-0.53125 -0.39497,-0.15865 -0.7281,-0.3106 -1.4375,-0.71875 -0.0278,-0.016 -0.0961,-0.0197 -0.125,-0.0312 -0.47932,-0.77687 -0.99059,-1.6591 -1.15625,-3.53125 z m 3.34375,0.21875 0.71875,0.0312 c 1.19877,0.93504 1.9928,1.55254 2.40625,1.875 -1.07172,-0.50823 -2.14086,-1.12212 -3.125,-1.90625 z m 3.8125,0.25 0.3125,0 c 0.0478,0.10766 0.10318,0.23327 0.15625,0.34375 -0.1721,-0.077 -0.17393,-0.0802 -0.34375,-0.15625 -0.0369,-0.0615 -0.0887,-0.12482 -0.125,-0.1875 z m 1.3125,0.0625 2.21875,0.15625 c 0.0833,0.0661 0.16188,0.12098 0.25,0.1875 l -0.125,1.1875 c -0.0492,-4.2e-4 -0.37502,0 -0.375,0 5e-5,10e-6 -0.67525,-0.3201 -0.9375,-0.4375 -0.21,-0.20092 -0.52208,-0.4065 -0.6875,-0.59375 -0.17279,-0.19559 -0.19476,-0.31678 -0.34375,-0.5 z m 22.1875,0.1875 0.28125,0.1875 c -0.018,0.029 -0.0129,0.0648 -0.0312,0.0937 -0.28478,0.44948 -0.62762,0.73497 -0.9375,1.125 -0.32683,0.14556 -0.60281,0.2661 -1,0.40625 0.64636,-0.6311 1.27511,-1.24457 1.6875,-1.8125 z m 0.4375,0.28125 0.5,0.3125 c -0.12689,0.0756 -0.0768,0.076 -0.21875,0.15625 -0.17065,0.0965 -0.51989,0.22709 -0.75,0.34375 0.16612,-0.24254 0.3075,-0.54517 0.46875,-0.8125 z m -34.3125,1.125 2.375,2 0.0312,0.0312 c 0.0473,0.0693 0.11253,0.18257 0.15625,0.25 0.17635,0.2823 0.26047,0.51463 0.46875,0.8125 0.0313,0.0448 0.0924,0.0806 0.125,0.125 l 0.125,0.1875 c -0.43047,-0.31344 -0.905,-0.5965 -1.25,-0.9375 -0.92535,-0.91463 -1.46893,-1.69786 -2.03125,-2.46875 z m 2.40625,0.4375 c 0.15489,0.103 0.51251,0.43361 0.65625,0.53125 -0.1854,-0.10288 -0.42487,-0.32703 -0.65625,-0.53125 z m 8.625,0.0937 c 0.12536,0.0202 0.39993,0.0938 0.59375,0.125 0.0336,0.0381 0.0923,0.0881 0.125,0.125 -0.0479,-0.0122 -0.0767,0.0127 -0.125,0 -0.19497,-0.0514 -0.39607,-0.18427 -0.59375,-0.25 z M 323,349.15625 c 0.15148,0.29211 0.27214,0.42048 0.40625,0.625 -0.15059,-0.22174 -0.26397,-0.34835 -0.40625,-0.625 z m 3.03125,1.1875 1.09375,0.75 3.28125,0.46875 c 0.80259,0.11442 1.38215,0.44861 4.3125,0.0625 0.0587,-0.008 0.18723,-0.056 0.25,-0.0625 l -0.28125,3.03125 c -0.0638,0.007 -0.0915,0.0249 -0.15625,0.0312 -1.92863,0.19005 -4.23136,-0.26213 -6.34375,-1.0625 -0.76034,-0.80264 -1.3234,-1.70634 -2,-2.9375 -0.0404,-0.0736 -0.11103,-0.20654 -0.15625,-0.28125 z m 26.1875,0.15625 c -0.76399,0.5952 -1.4589,1.02595 -2.21875,1.40625 0.22788,-0.34456 0.49144,-0.67954 0.6875,-1.03125 0.568,-0.089 1.04151,-0.23169 1.53125,-0.375 z m -4.5,0.5 0.28125,0.1875 c -0.15894,0.0491 -0.36647,0.0495 -0.53125,0.0937 0.0783,-0.0978 0.1741,-0.18254 0.25,-0.28125 z m -22.96875,0.0937 2.28125,1.9375 c -0.39895,-0.18502 -0.81573,-0.35312 -1.1875,-0.5625 -0.39752,-0.43822 -0.75224,-0.88603 -1.09375,-1.375 z m 23.90625,0.59375 0.34375,0.25 c -0.14176,0.19276 -0.45678,0.36701 -0.625,0.5625 -0.72898,0.25269 -1.56999,0.70224 -2.15625,0.8125 -0.24253,0.0456 -0.39773,0.0295 -0.625,0.0625 0.2646,-0.27818 0.64452,-0.58488 0.875,-0.84375 0.10267,-0.11532 0.18104,-0.22907 0.28125,-0.34375 0.55932,-0.10965 1.11763,-0.18813 1.65625,-0.375 0.0931,-0.0323 0.15877,-0.0913 0.25,-0.125 z m -1.3125,1.75 c -0.0383,0.0359 -0.0859,0.058 -0.125,0.0937 -0.11659,0.0184 -0.1609,0.0446 -0.28125,0.0625 l 0.40625,-0.15625 z m -0.3125,0.28125 c -1.87796,1.65722 -4.24075,3.20198 -6.90625,3.625 -2.29423,0.3641 -4.13999,0.0409 -5.71875,-0.40625 -0.79594,-0.07 -1.44536,-0.19525 -2,-0.40625 0.45201,0.11806 0.98495,0.25244 1.78125,0.34375 -0.43975,-0.13329 -0.84454,-0.25271 -1.21875,-0.40625 -0.59766,-0.11945 -1.13252,-0.19489 -1.8125,-0.4375 -0.18379,-0.096 -0.37442,-0.20612 -0.53125,-0.28125 -0.0182,-0.009 -0.0446,-0.0229 -0.0625,-0.0312 -0.0179,-0.008 -0.0449,-0.0233 -0.0625,-0.0312 -0.0469,-0.0195 -0.10911,-0.0423 -0.15625,-0.0625 -0.95747,-0.38722 -1.32819,-0.70175 -1.84375,-1.03125 0.21094,0.11379 0.43868,0.20585 0.65625,0.3125 -0.56566,-0.31162 -1.11804,-0.53491 -1.6875,-0.96875 0.39543,0.15294 0.75952,0.31429 1.1875,0.4375 0.33835,0.28382 0.8649,0.61664 1.3125,0.9375 0.74667,0.32427 1.44238,0.63946 2.21875,0.875 -0.0762,-0.0361 -0.20872,-0.0578 -0.28125,-0.0937 -1.08499,-0.53754 -1.58469,-1.0125 -2.25,-1.5 1.63137,0.36435 3.35023,0.58605 5,0.46875 l -0.1875,1.625 c 0.23883,0.0432 0.48391,0.12322 0.71875,0.15625 0.56385,0.018 1.11586,0.0562 1.96875,-0.0312 -0.66286,0.1316 -1.14178,0.0782 -1.6875,0.0937 1.54132,0.19166 2.99938,0.2134 4.125,-0.0937 2.07252,-0.56553 3.48496,-1.2788 4.53125,-2.03125 0.0142,-0.0102 0.0172,-0.021 0.0312,-0.0312 l 2.25,-0.9375 c 0.21922,-0.0278 0.41381,-0.0578 0.625,-0.0937 z"
       id="path2985"
       inkscape:connector-curvature="0"
       sodipodi:nodetypes="cccccccccccccccccccccccccccccccccccccccccccsccccccccccscsssccccccccccsscccccccccssssccccccssccsccccccccccccccccccssccccccccccccccccccccccccccccccccccccsscccccccsccccccccccccccccccccccccccccccccccccsccccccscccccccccccccccccccccccccccccccccccccccccccccccccccccccccccccccccccccccccccccccccccccccccccccccccccccccccccccccccccccccsccccccccccccccccccccccccccccccccccccccccccccccccccccccccccccccccccsccccccccccccccccsccsccccccccccccccccsccccccccccccccccccccccccccccccccccccccccccccsccccscccccccccccccccccccccsccscccccccccccccccccccccccccsccccccccccccsccccccccccccccccccscccccccccccccccccsccccccccccccccccccccccccccccccccccccccccccccccccccccscsccccccscccccccccscccccccccccccccccccccccccccccsccccccccccscccccccccccccccccccccccccccccccccscccccsccccccccsssccccccccccccccccccccsccccccccccccccccccccsccccccccccccccccccccccccccccccccccccccccccccscccccccscccccccccccccccccccccccccccc" />
  </g>
</svg>
