<?xml version="1.0" encoding="UTF-8" standalone="no"?>
<!-- Created with Inkscape (http://www.inkscape.org/) -->

<svg
   xmlns:dc="http://purl.org/dc/elements/1.1/"
   xmlns:cc="http://creativecommons.org/ns#"
   xmlns:rdf="http://www.w3.org/1999/02/22-rdf-syntax-ns#"
   xmlns:svg="http://www.w3.org/2000/svg"
   xmlns="http://www.w3.org/2000/svg"
   xmlns:xlink="http://www.w3.org/1999/xlink"
   xmlns:sodipodi="http://sodipodi.sourceforge.net/DTD/sodipodi-0.dtd"
   xmlns:inkscape="http://www.inkscape.org/namespaces/inkscape"
   width="744.09448819"
   height="1052.3622047"
   id="svg2"
   version="1.1"
   inkscape:version="0.48.4 r9939"
   inkscape:export-filename="/home/odin/Proj/Gosu/Ball1/img/needle.png"
   inkscape:export-xdpi="21"
   inkscape:export-ydpi="21"
   sodipodi:docname="New document 1">
  <defs
     id="defs4">
    <linearGradient
       inkscape:collect="always"
       id="linearGradient4428">
      <stop
         style="stop-color:#eec7a0;stop-opacity:1;"
         offset="0"
         id="stop4430" />
      <stop
         style="stop-color:#eec7a0;stop-opacity:0;"
         offset="1"
         id="stop4432" />
    </linearGradient>
    <linearGradient
       inkscape:collect="always"
       id="linearGradient4402">
      <stop
         style="stop-color:#f8e9b4;stop-opacity:1;"
         offset="0"
         id="stop4404" />
      <stop
         style="stop-color:#f8e9b4;stop-opacity:0;"
         offset="1"
         id="stop4406" />
    </linearGradient>
    <linearGradient
       inkscape:collect="always"
       id="linearGradient4331">
      <stop
         style="stop-color:#ea1616;stop-opacity:1;"
         offset="0"
         id="stop4333" />
      <stop
         style="stop-color:#ea1616;stop-opacity:0;"
         offset="1"
         id="stop4335" />
    </linearGradient>
    <clipPath
       clipPathUnits="userSpaceOnUse"
       id="clipPath1064-2">
      <path
         inkscape:connector-curvature="0"
         d="m 395.344,509.517 c -48.561,-0.659 -96.638,-43.276 -96.638,-96.639 l 0,0 c 0,-53.361 43.275,-96.637 96.638,-96.637 l 0,0 c 53.362,0 97.933,45.002 97.933,98.366 l 0,0 c 0,52.951 -48.612,94.92 -96.809,94.918 l 0,0 c -0.373,0 -0.751,-0.003 -1.124,-0.008"
         id="path1066-5" />
    </clipPath>
    <linearGradient
       x1="0"
       y1="0"
       x2="1"
       y2="0"
       gradientUnits="userSpaceOnUse"
       gradientTransform="matrix(121.15765,-94.658722,-94.658722,-121.15764,405.69922,404.68164)"
       spreadMethod="pad"
       id="linearGradient1072-9">
      <stop
         style="stop-opacity:1;stop-color:#b56724"
         offset="0"
         id="stop1074-3" />
      <stop
         style="stop-opacity:1;stop-color:#342d2b"
         offset="1"
         id="stop1076-7" />
    </linearGradient>
    <clipPath
       clipPathUnits="userSpaceOnUse"
       id="clipPath1084-4">
      <path
         inkscape:connector-curvature="0"
         d="m 298.706,413.876 c 0,-52.813 42.828,-95.642 95.641,-95.642 l 0,0 c 52.813,0 95.641,42.829 95.641,95.642 l 0,0 c 0,52.812 -42.828,95.641 -95.641,95.641 l 0,0 c -52.813,0 -95.641,-42.829 -95.641,-95.641"
         id="path1086-4" />
    </clipPath>
    <linearGradient
       x1="0"
       y1="0"
       x2="1"
       y2="0"
       gradientUnits="userSpaceOnUse"
       gradientTransform="matrix(-4.9656067,94.749344,94.749344,4.9656067,390.98047,478.11719)"
       spreadMethod="pad"
       id="linearGradient1092-4">
      <stop
         style="stop-opacity:1;stop-color:#342d2b"
         offset="0"
         id="stop1094-7" />
      <stop
         style="stop-opacity:1;stop-color:#342d2b"
         offset="1"
         id="stop1096-7" />
    </linearGradient>
    <clipPath
       clipPathUnits="userSpaceOnUse"
       id="clipPath1184-9">
      <path
         inkscape:connector-curvature="0"
         d="m 386.513,510.098 0,-1.9 15.668,0 0,1.9 c 0,2.726 -5.943,2.303 -7.697,2.479 l 0,0 c -1.779,-0.17 -7.971,0.291 -7.971,-2.479"
         id="path1186-0" />
    </clipPath>
    <linearGradient
       x1="0"
       y1="0"
       x2="1"
       y2="0"
       gradientUnits="userSpaceOnUse"
       gradientTransform="matrix(11.286362,-0.3941345,-0.3941345,-11.286362,388.74121,510.44824)"
       spreadMethod="pad"
       id="linearGradient1192-0">
      <stop
         style="stop-opacity:1;stop-color:#9e5828"
         offset="0"
         id="stop1194-7" />
      <stop
         style="stop-opacity:1;stop-color:#342d2b"
         offset="1"
         id="stop1196-1" />
    </linearGradient>
    <clipPath
       clipPathUnits="userSpaceOnUse"
       id="clipPath1204-1">
      <path
         inkscape:connector-curvature="0"
         d="m 390.029,512.337 -0.666,-4.139 10.001,0 -0.614,4.128 c -1.641,0.219 -3.429,0.167 -4.266,0.251 l 0,0 c -0.856,-0.083 -2.736,-0.018 -4.455,-0.24"
         id="path1206-1" />
    </clipPath>
    <linearGradient
       x1="0"
       y1="0"
       x2="1"
       y2="0"
       gradientUnits="userSpaceOnUse"
       gradientTransform="matrix(0.5840759,-6.6760712,-6.6760712,-0.5840759,393.83691,514.22559)"
       spreadMethod="pad"
       id="linearGradient1212-9">
      <stop
         style="stop-opacity:1;stop-color:#9e5828"
         offset="0"
         id="stop1214-7" />
      <stop
         style="stop-opacity:1;stop-color:#342d2b"
         offset="1"
         id="stop1216-3" />
    </linearGradient>
    <clipPath
       clipPathUnits="userSpaceOnUse"
       id="clipPath1324-2">
      <path
         inkscape:connector-curvature="0"
         d="m 300.038,415.959 c 0,-52.077 42.231,-94.311 94.309,-94.311 l 0,0 c 52.076,0 94.31,42.234 94.31,94.311 l 0,0 c 0,52.077 -42.234,94.31 -94.31,94.31 l 0,0 c -52.078,0 -94.309,-42.233 -94.309,-94.31"
         id="path1326-9" />
    </clipPath>
    <clipPath
       clipPathUnits="userSpaceOnUse"
       id="clipPath1338-0">
      <path
         inkscape:connector-curvature="0"
         d="M 0,842 595,842 595,0 0,0 0,842 z"
         id="path1340-5" />
    </clipPath>
    <clipPath
       clipPathUnits="userSpaceOnUse"
       id="clipPath1366-4">
      <path
         inkscape:connector-curvature="0"
         d="m 329.971,413.875 c 0,-35.547 28.828,-64.377 64.375,-64.377 l 0,0 c 35.549,0 64.377,28.83 64.377,64.377 l 0,0 c 0,35.547 -28.828,64.377 -64.377,64.377 l 0,0 c -35.547,0 -64.375,-28.83 -64.375,-64.377"
         id="path1368-6" />
    </clipPath>
    <radialGradient
       fx="0"
       fy="0"
       cx="0"
       cy="0"
       r="1"
       gradientUnits="userSpaceOnUse"
       gradientTransform="matrix(145.54687,0,0,-145.54687,418.80957,529.75342)"
       spreadMethod="pad"
       id="radialGradient1374-6">
      <stop
         style="stop-opacity:1;stop-color:#faf1cb"
         offset="0"
         id="stop1376-8" />
      <stop
         style="stop-opacity:1;stop-color:#e0c736"
         offset="1"
         id="stop1378-6" />
    </radialGradient>
    <clipPath
       clipPathUnits="userSpaceOnUse"
       id="clipPath1386-1">
      <path
         inkscape:connector-curvature="0"
         d="M 0,842 595,842 595,0 0,0 0,842 z"
         id="path1388-6" />
    </clipPath>
    <clipPath
       clipPathUnits="userSpaceOnUse"
       id="clipPath1698-7">
      <path
         inkscape:connector-curvature="0"
         d="M 0,842 595,842 595,0 0,0 0,842 z"
         id="path1700-2" />
    </clipPath>
    <clipPath
       clipPathUnits="userSpaceOnUse"
       id="clipPath1706-2">
      <path
         inkscape:connector-curvature="0"
         d="m 337.324,508.187 151.334,0 0,-118.206 -151.334,0 0,118.206 z"
         id="path1708-3" />
    </clipPath>
    <clipPath
       clipPathUnits="userSpaceOnUse"
       id="clipPath1710-6">
      <path
         inkscape:connector-curvature="0"
         d="m 394.346,508.187 c 52.078,0 94.312,-42.233 94.312,-94.312 0,-1.604 -0.042,-3.202 -0.121,-4.788 -15.818,-11.987 -35.529,-19.106 -56.902,-19.106 -52.078,0 -94.311,42.234 -94.311,94.311 0,1.605 0.041,3.203 0.122,4.789 15.817,11.987 35.527,19.106 56.9,19.106"
         clip-rule="evenodd"
         id="path1712-8" />
    </clipPath>
    <linearGradient
       x1="0"
       y1="0"
       x2="1"
       y2="0"
       gradientUnits="userSpaceOnUse"
       gradientTransform="matrix(113.69402,-71.0439,-71.0439,-113.694,356.14453,484.60547)"
       spreadMethod="pad"
       id="linearGradient1714-0">
      <stop
         style="stop-opacity:1;stop-color:#f1e8cd"
         offset="0"
         id="stop1716-1" />
      <stop
         style="stop-opacity:1;stop-color:#faf8f5"
         offset="1"
         id="stop1718-0" />
    </linearGradient>
    <radialGradient
       inkscape:collect="always"
       xlink:href="#linearGradient4331"
       id="radialGradient4362"
       gradientUnits="userSpaceOnUse"
       gradientTransform="matrix(1,0,0,0.39171906,-1515.3035,-782.09565)"
       cx="-1115.2084"
       cy="-2361.9534"
       fx="-1115.2084"
       fy="-2361.9534"
       r="607.01355" />
    <radialGradient
       inkscape:collect="always"
       xlink:href="#linearGradient4402"
       id="radialGradient4408"
       cx="-7321.5854"
       cy="-951.7804"
       fx="-7321.5854"
       fy="-951.7804"
       r="1525.3601"
       gradientTransform="matrix(1,0,0,0.7933815,5422.4989,-616.8789)"
       gradientUnits="userSpaceOnUse" />
    <linearGradient
       inkscape:collect="always"
       xlink:href="#linearGradient4428"
       id="linearGradient4434"
       x1="-5824.569"
       y1="2393.8447"
       x2="-2773.8489"
       y2="2393.8447"
       gradientUnits="userSpaceOnUse"
       gradientTransform="translate(6790.2452,-2713.2698)" />
  </defs>
  <sodipodi:namedview
     id="base"
     pagecolor="#ffffff"
     bordercolor="#666666"
     borderopacity="1.0"
     inkscape:pageopacity="0.0"
     inkscape:pageshadow="2"
     inkscape:zoom="0.12374369"
     inkscape:cx="-4246.9927"
     inkscape:cy="573.75989"
     inkscape:document-units="px"
     inkscape:current-layer="layer1"
     showgrid="false"
     inkscape:window-width="1920"
     inkscape:window-height="1056"
     inkscape:window-x="0"
     inkscape:window-y="24"
     inkscape:window-maximized="1" />
  <metadata
     id="metadata7">
    <rdf:RDF>
      <cc:Work
         rdf:about="">
        <dc:format>image/svg+xml</dc:format>
        <dc:type
           rdf:resource="http://purl.org/dc/dcmitype/StillImage" />
        <dc:title></dc:title>
      </cc:Work>
    </rdf:RDF>
  </metadata>
  <g
     inkscape:label="Layer 1"
     inkscape:groupmode="layer"
     id="layer1">
    <rect
       style="fill:#eec73e;fill-opacity:1;stroke:#000023;stroke-width:4.0999999;stroke-linecap:round;stroke-linejoin:round;stroke-miterlimit:4;stroke-opacity:1;stroke-dasharray:none;stroke-dashoffset:0"
       id="rect4364"
       width="3046.6201"
       height="2416.2849"
       x="-3965.8594"
       y="-1980.1158"
       inkscape:export-filename="/home/odin/Proj/Gosu/Ball1/img/checkout.png"
       inkscape:export-xdpi="21"
       inkscape:export-ydpi="21" />
    <rect
       style="fill:url(#linearGradient4434);fill-opacity:1;stroke:none"
       id="rect4364-3"
       width="3046.6201"
       height="2416.2849"
       x="967.72607"
       y="-1527.5674"
       transform="scale(-1,1)"
       inkscape:export-filename="/home/odin/Proj/Gosu/Ball1/img/checkout.png"
       inkscape:export-xdpi="21"
       inkscape:export-ydpi="21" />
    <rect
       style="fill:url(#radialGradient4408);fill-opacity:1;stroke:none"
       id="rect4364-2"
       width="3046.6201"
       height="2416.2849"
       x="-3422.3967"
       y="-2580.1465"
       inkscape:export-filename="/home/odin/Proj/Gosu/Ball1/img/checkout.png"
       inkscape:export-xdpi="21"
       inkscape:export-ydpi="21" />
    <g
       id="g4347"
       transform="translate(-113.13705,-715.188)"
       inkscape:export-filename="/home/odin/Proj/Gosu/Ball1/img/checkout.png"
       inkscape:export-xdpi="21"
       inkscape:export-ydpi="21">
      <g
         transform="translate(1176.0758,2375.194)"
         id="g4339">
        <path
           style="fill:#976969;fill-opacity:1;stroke:#000023;stroke-width:6.32154083;stroke-linecap:round;stroke-linejoin:round;stroke-miterlimit:4;stroke-opacity:1;stroke-dashoffset:0"
           d="m -2026.6594,-1930.3511 c -14.2126,-1.5763 -28.7309,-3.0163 -43.5624,-4.2813 -14.8316,-1.2649 -29.9623,-2.3682 -45.375,-3.3124 -15.4128,-0.9443 -31.1061,-1.7296 -47.0626,-2.3438 -15.9564,-0.6142 -32.1938,-1.0376 -48.6562,-1.3125 -16.4624,-0.2749 -33.1631,-0.3863 -50.0938,-0.3125 -16.9306,0.074 -34.0761,0.3182 -51.4374,0.75 -17.3614,0.4318 -34.9332,1.0446 -52.6876,1.8438 -17.7543,0.7991 -35.7027,1.793 -53.8124,2.9687 l -0.7813,0.062 c -13.5118,0.8812 -26.9425,1.8373 -40.3125,2.9062 -13.37,1.069 -26.6638,2.2491 -39.875,3.5 -13.2112,1.251 -26.3396,2.5731 -39.375,4 -13.0354,1.427 -25.97,2.9654 -38.8125,4.5626 -12.8425,1.5971 -25.5861,3.2698 -38.2187,5.0312 -12.6327,1.7614 -25.1567,3.6114 -37.5626,5.5312 -12.4058,1.9199 -24.713,3.8964 -36.875,5.9688 -12.1619,2.0724 -24.1927,4.2185 -36.0937,6.4375 -11.901,2.219 -23.6581,4.5152 -35.2813,6.875 -11.6231,2.3598 -23.1093,4.7865 -34.4374,7.2813 -11.3282,2.4947 -22.5151,5.0637 -33.5313,7.6874 -11.0162,2.6238 -21.8752,5.3157 -32.5625,8.0626 -10.6873,2.7468 -21.19,5.5421 -31.5312,8.4062 -10.3413,2.8641 -20.5218,5.8058 -30.5,8.7812 -9.9783,2.9755 -19.7455,5.9816 -29.3438,9.0626 -9.5983,3.0809 -19.0175,6.2256 -28.2188,9.4062 -9.2012,3.1806 -18.1815,6.4132 -26.9687,9.6875 -8.7872,3.2743 -17.3939,6.5753 -25.75,9.9375 -8.3561,3.3622 -16.4669,6.7746 -24.375,10.2188 -7.9081,3.4441 -15.5883,6.9485 -23.0313,10.4687 -7.4429,3.5202 -14.6641,7.0658 -21.625,10.6563 -6.9608,3.5904 -13.6632,7.2202 -20.125,10.875 -6.4617,3.6547 -12.6793,7.318 -18.625,11.0312 -5.9456,3.7132 -11.6187,7.453 -17.0312,11.2188 -5.4125,3.7657 -10.5752,7.5625 -15.4375,11.375 -4.8623,3.8124 -9.4236,7.6467 -13.7187,11.5 -4.2952,3.8532 -8.3203,7.7368 -12.0313,11.625 -3.711,3.8881 -7.109,7.8015 -10.2187,11.7187 -3.1098,3.9173 -5.9148,7.8409 -8.4063,11.7813 -2.4915,3.9404 -4.675,7.886 -6.5313,11.8437 -1.8562,3.9577 -3.3897,7.9059 -4.5937,11.875 -1.204,3.9691 -2.0902,7.9629 -2.625,11.9375 -0.2676,1.9887 -0.4355,3.9719 -0.5313,5.9375 -0.096,1.9656 -0.1054,3.9018 -0.031,5.8438 0.074,1.942 0.2266,3.8633 0.4688,5.7812 0.2421,1.9179 0.5606,3.8254 0.9687,5.7188 0.8161,3.7868 1.9694,7.5329 3.4375,11.2187 1.4681,3.6859 3.2707,7.3251 5.375,10.9063 2.1043,3.5811 4.5252,7.121 7.25,10.5937 2.7248,3.4727 5.733,6.8896 9.0625,10.25 3.3295,3.3605 6.9565,6.6618 10.875,9.9063 3.9185,3.2444 8.1333,6.4065 12.625,9.5312 4.4917,3.1247 9.2634,6.2176 14.3125,9.2188 4.4836,2.665 9.276,5.2476 14.1875,7.8125 124.3385,61.9511 374.2559,93.1468 668.6875,74.0312 169.5735,-11.0093 328.5597,-37.1133 460.4062,-72.375 l 0,-379.6875 z"
           id="path4303"
           inkscape:connector-curvature="0" />
        <path
           style="fill:url(#radialGradient4362);fill-opacity:1;stroke:#000023;stroke-width:6.32154083;stroke-linecap:round;stroke-linejoin:round;stroke-miterlimit:4;stroke-opacity:1;stroke-dashoffset:0"
           d="m -2026.6594,-1930.3511 c -14.2126,-1.5763 -28.7309,-3.0163 -43.5624,-4.2813 -14.8316,-1.2649 -29.9623,-2.3682 -45.375,-3.3124 -15.4128,-0.9443 -31.1061,-1.7296 -47.0626,-2.3438 -15.9564,-0.6142 -32.1938,-1.0376 -48.6562,-1.3125 -16.4624,-0.2749 -33.1631,-0.3863 -50.0938,-0.3125 -16.9306,0.074 -34.0761,0.3182 -51.4374,0.75 -17.3614,0.4318 -34.9332,1.0446 -52.6876,1.8438 -17.7543,0.7991 -35.7027,1.793 -53.8124,2.9687 l -0.7813,0.062 c -13.5118,0.8812 -26.9425,1.8373 -40.3125,2.9062 -13.37,1.069 -26.6638,2.2491 -39.875,3.5 -13.2112,1.251 -26.3396,2.5731 -39.375,4 -13.0354,1.427 -25.97,2.9654 -38.8125,4.5626 -12.8425,1.5971 -25.5861,3.2698 -38.2187,5.0312 -12.6327,1.7614 -25.1567,3.6114 -37.5626,5.5312 -12.4058,1.9199 -24.713,3.8964 -36.875,5.9688 -12.1619,2.0724 -24.1927,4.2185 -36.0937,6.4375 -11.901,2.219 -23.6581,4.5152 -35.2813,6.875 -11.6231,2.3598 -23.1093,4.7865 -34.4374,7.2813 -11.3282,2.4947 -22.5151,5.0637 -33.5313,7.6874 -11.0162,2.6238 -21.8752,5.3157 -32.5625,8.0626 -10.6873,2.7468 -21.19,5.5421 -31.5312,8.4062 -10.3413,2.8641 -20.5218,5.8058 -30.5,8.7812 -9.9783,2.9755 -19.7455,5.9816 -29.3438,9.0626 -9.5983,3.0809 -19.0175,6.2256 -28.2188,9.4062 -9.2012,3.1806 -18.1815,6.4132 -26.9687,9.6875 -8.7872,3.2743 -17.3939,6.5753 -25.75,9.9375 -8.3561,3.3622 -16.4669,6.7746 -24.375,10.2188 -7.9081,3.4441 -15.5883,6.9485 -23.0313,10.4687 -7.4429,3.5202 -14.6641,7.0658 -21.625,10.6563 -6.9608,3.5904 -13.6632,7.2202 -20.125,10.875 -6.4617,3.6547 -12.6793,7.318 -18.625,11.0312 -5.9456,3.7132 -11.6187,7.453 -17.0312,11.2188 -5.4125,3.7657 -10.5752,7.5625 -15.4375,11.375 -4.8623,3.8124 -9.4236,7.6467 -13.7187,11.5 -4.2952,3.8532 -8.3203,7.7368 -12.0313,11.625 -3.711,3.8881 -7.109,7.8015 -10.2187,11.7187 -3.1098,3.9173 -5.9148,7.8409 -8.4063,11.7813 -2.4915,3.9404 -4.675,7.886 -6.5313,11.8437 -1.8562,3.9577 -3.3897,7.9059 -4.5937,11.875 -1.204,3.9691 -2.0902,7.9629 -2.625,11.9375 -0.2676,1.9887 -0.4355,3.9719 -0.5313,5.9375 -0.096,1.9656 -0.1054,3.9018 -0.031,5.8438 0.074,1.942 0.2266,3.8633 0.4688,5.7812 0.2421,1.9179 0.5606,3.8254 0.9687,5.7188 0.8161,3.7868 1.9694,7.5329 3.4375,11.2187 1.4681,3.6859 3.2707,7.3251 5.375,10.9063 2.1043,3.5811 4.5252,7.121 7.25,10.5937 2.7248,3.4727 5.733,6.8896 9.0625,10.25 3.3295,3.3605 6.9565,6.6618 10.875,9.9063 3.9185,3.2444 8.1333,6.4065 12.625,9.5312 4.4917,3.1247 9.2634,6.2176 14.3125,9.2188 4.4836,2.665 9.276,5.2476 14.1875,7.8125 124.3385,61.9511 374.2559,93.1468 668.6875,74.0312 169.5735,-11.0093 328.5597,-37.1133 460.4062,-72.375 l 0,-379.6875 z"
           id="path4303-7"
           inkscape:connector-curvature="0" />
      </g>
      <g
         transform="translate(1328.5714,228.57143)"
         id="g4230">
        <path
           id="path3279"
           style="fill:#373535;fill-opacity:1;fill-rule:nonzero;stroke:none"
           d="m -2441.0248,500.52712 c 0,0 28.7587,-22.4323 25.2149,-30.10464 -3.4729,-7.79637 -12.6514,-25.99382 -6.3264,-35.06597 6.3264,-9.16074 15.451,-18.95936 11.9256,-35.08368 -3.4913,-16.12432 -20.9793,-114.34093 -24.5416,-162.64301 -3.5253,-48.4084 -6.9628,-84.12998 -12.5975,-107.27103 -5.6176,-23.19422 -11.9072,-48.408404 -11.9072,-48.408404 0,0 -16.1597,14.742236 -19.6511,9.089865 -3.5084,-5.616934 -9.1076,-42.064986 -9.1076,-50.446089 0,-8.416541 3.5084,-7.725499 -2.1078,-23.832101 -5.6177,-16.12432021 -7.7255,-28.04923 -8.3989,-39.97414 -0.7087,-11.942628 -1.4359,-22.450015 -3.4913,-35.083686 -2.1263,-12.598233 -4.9075,-21.014774 0,-37.847856 4.9089,-16.850799 5.6346,-39.903259 9.7809,-56.063019 4.2171,-16.15976 4.2171,-44.88232 5.6176,-65.93253 1.4346,-21.03249 -0.6946,-30.8134 7.7071,-35.73929 8.3988,-4.92589 66.642,-31.52216 68.0411,-36.44805 0,0 2.4098,-4.92589 0.6521,-14.38786 -1.7011,-9.42652 -5.2619,-24.54086 -6.627,-26.61398 -1.4345,-2.12629 -6.9983,3.15398 -10.1523,-5.61694 -3.1894,-8.7532 -4.2001,-16.8508 -6.3264,-22.11335 -2.1078,-5.24484 -1.7719,-10.50739 2.7826,-8.06216 4.5715,2.44522 2.7996,-1.38209 2.7996,-1.38209 0,0 -12.9349,-28.03151 5.9536,-53.28113 4.9429,-5.63465 36.093,-31.5576 69.7592,3.50837 0,0 7.4065,6.29025 7.4065,24.16876 0,0 -0.7371,20.00479 -1.0631,21.75897 -0.3544,1.71875 9.8518,-7.3534 10.1537,3.84503 0.3685,11.19843 0,20.32373 -6.9643,29.07694 0,0 -1.0915,2.09084 -5.989,2.09084 0,0 -0.3402,18.99481 1.0064,21.05021 1.436,2.14401 17.8792,15.76994 23.1765,18.58727 10.1537,5.97132 62.7608,17.20518 66.6236,18.58727 3.7918,1.38208 12.9703,7.3534 15.0257,14.35241 2.1263,7.05218 2.8351,17.22291 4.607,23.14106 1.701,5.93588 6.6099,26.98609 11.2338,39.61976 4.5007,12.61595 11.1985,41.37395 12.616,52.60781 1.3325,11.19843 8.3464,46.93772 5.2632,55.371983 -3.1894,8.416541 -10.5605,13.998037 -15.132,18.604985 -4.5006,4.518354 -36.7847,27.305031 -37.8833,29.750258 -1.0064,2.480665 0.7229,4.571511 1.7889,9.798625 1.0632,5.280272 4.5545,16.478702 4.9089,22.450016 0.3402,5.9890335 6.6623,65.560425 7.3711,72.258219 0.6521,6.662357 5.6162,25.86979 1.3892,30.140077 -4.2172,4.181692 -9.1076,6.272538 -9.1076,8.079879 0,1.718746 -2.0738,8.363388 -2.835,14.015758 -0.6521,5.58149 -2.4098,75.67799 -0.3261,93.96403 2.0724,18.23289 3.8443,42.40165 6.3434,46.93772 2.4098,4.55379 12.2262,63.43414 13.3063,72.91383 1.0632,9.47968 5.5822,85.54749 8.0445,91.83775 2.4991,6.34341 7.3711,32.9574 4.9088,40.98412 -2.4097,8.0976 -7.7439,22.8044 -9.0905,28.06695 -1.4346,5.22712 -0.7371,13.69682 1.3466,16.8508 2.1447,3.15399 15.1505,15.43328 9.1615,22.8044 -5.9891,7.30024 -18.924,12.22613 -23.8499,12.59823 -4.9088,0.35438 -14.3708,0 -19.987,-1.70102 -5.6177,-1.8605 -16.4787,-4.94361 -16.1243,-11.26931 0.3402,-6.30798 4.2171,-17.89622 3.8627,-22.8044 -0.3544,-4.85501 -0.3544,-4.85501 -3.1724,-9.46196 -2.7996,-4.51835 -13.9796,-16.39011 -17.1336,-30.47674 -3.1894,-14.05119 -6.6978,-60.98891 -6.3264,-78.17637 0.3402,-17.13431 -1.0773,-54.37972 -3.2064,-71.15964 -2.0909,-16.81537 -12.5636,-73.60487 -15.7345,-90.43795 -3.1895,-16.83308 -7.7085,-40.66518 -10.5081,-60.63453 -2.7812,-20.04023 -9.8334,-48.08946 -10.1523,-52.9622 -0.4111,-4.90817 -2.8535,14.7068 -2.8535,16.15976 0,1.36366 -0.3402,63.3987 -1.0348,78.15866 -0.6946,14.72452 0.3544,73.58715 -0.6946,86.22082 -1.049,12.63367 -2.4622,72.54172 -2.4622,82.3935 0,9.79863 0.3685,15.06118 -2.0909,21.67038 -2.4636,6.71552 -7.0706,22.11336 -4.2171,30.93743 2.7812,8.75321 8.7702,14.7068 8.7702,21.35144 0,6.64464 -2.4622,15.43328 -2.0908,20.28829 0.326,4.90818 2.0908,32.65618 0,34.03827 -2.1263,1.36365 -18.2677,6.30797 -21.759,4.53607 -3.5254,-1.71875 -8.0799,-1.71875 -10.2062,2.144 -2.0724,3.8096 -10.8256,12.26157 -21.6881,14.3347 -10.8965,2.144 -26.6494,2.79961 -34.3395,-1.70103 -7.7425,-4.55379 -10.8794,-10.20616 -7.7425,-13.00577 3.171,-2.72873 5.9706,-3.84503 8.4343,-5.95359"
           inkscape:connector-curvature="0" />
        <path
           id="path3283"
           style="fill:#00b0f0;fill-opacity:1;fill-rule:nonzero;stroke:none"
           d="m -2415.121,-38.388502 c 0,0 14.0689,0 18.2322,-3.29574 4.2355,-3.260302 9.3556,-4.660106 15.0087,-4.181692 5.5992,0.460695 9.3372,-1.435242 9.3372,-1.435242 0,0 -9.3372,-19.101118 -4.6948,-59.358764 4.6948,-40.20449 10.277,-79.41671 14.9719,-98.14573 4.6424,-18.69358 13.998,-58.91578 15.434,-69.15738 1.3608,-10.31248 4.6239,-37.44032 4.6239,-37.44032 l -2.7996,-2.74645 c 0,0 -2.7996,8.39882 -9.3202,14.45873 -6.556,6.09535 -25.7096,24.77121 -29.449,27.57082 -3.7565,2.81732 -7.4945,1.91365 -10.7548,-2.79961 -3.2787,-4.66011 -15.8238,-19.172 -15.8238,-19.172 0,0 -1.4699,5.61694 -3.3482,6.55605 -1.8427,0.9384 -5.1215,56.08074 -4.6962,65.43639 0.4819,9.33793 7.0706,123.395348 6.5745,137.907236 -0.4395,14.476451 -3.2958,45.803702 -3.2958,45.803702"
           inkscape:connector-curvature="0" />
        <path
           id="path3287"
           style="fill:none;stroke:#373536;stroke-width:1.7719034;stroke-linecap:butt;stroke-linejoin:miter;stroke-miterlimit:4;stroke-opacity:1;stroke-dasharray:none"
           d="m -2415.121,-38.388502 c 0,0 14.0689,0 18.2322,-3.29574 4.2355,-3.260302 9.3556,-4.660106 15.0087,-4.181692 5.5992,0.460695 9.3372,-1.435242 9.3372,-1.435242 0,0 -9.3372,-19.101118 -4.6948,-59.358764 4.6948,-40.20449 10.277,-79.41671 14.9719,-98.14573 4.6424,-18.69358 13.998,-58.91578 15.434,-69.15738 1.3608,-10.31248 4.6239,-37.44032 4.6239,-37.44032 l -2.7996,-2.74645 c 0,0 -2.7996,8.39882 -9.3202,14.45873 -6.556,6.09535 -25.7096,24.77121 -29.449,27.57082 -3.7565,2.81732 -7.4945,1.91365 -10.7548,-2.79961 -3.2787,-4.66011 -15.8238,-19.172 -15.8238,-19.172 0,0 -1.4699,5.61694 -3.3482,6.55605 -1.8427,0.9384 -5.1215,56.08074 -4.6962,65.43639 0.4819,9.33793 7.0706,123.395348 6.5745,137.907236 -0.4395,14.476451 -3.2958,45.803702 -3.2958,45.803702 z"
           inkscape:connector-curvature="0" />
        <path
           id="path3291"
           style="fill:#373536;fill-opacity:1;fill-rule:nonzero;stroke:none"
           d="m -2408.3211,-250.86268 c 0,0 2.0738,-6.1485 4.6962,-12.35017 2.7642,-6.20166 5.2973,-12.35016 8.3095,-12.7577 0.482,0 0.9356,0.23106 1.3042,0.58402 l -1.0632,0.97526 c -0.1417,-0.14176 -0.1417,-0.14176 -0.241,-0.14176 -0.9922,-0.38982 -4.6594,5.75869 -7.0337,11.88947 -2.57,6.11307 -4.5899,12.22614 -4.5899,12.27929 l -1.375,-0.4777 z"
           inkscape:connector-curvature="0" />
        <path
           id="path3295"
           style="fill:#373536;fill-opacity:1;fill-rule:nonzero;stroke:none"
           d="m -2416.6604,-269.49786 1.2758,-0.54858 8.3988,18.21517 -1.2474,0.56701 -8.4343,-18.23289 z"
           inkscape:connector-curvature="0" />
        <path
           id="path3299"
           style="fill:#373536;fill-opacity:1;fill-rule:nonzero;stroke:none"
           d="m -2356.4455,-258.8911 c -1.0915,-6.75095 -15.5743,-17.36466 -20.9439,-17.20518 l -0.2268,0 -0.1701,-1.41753 0.4111,0 c 6.0429,0.14176 18.6589,9.00127 21.8128,16.62046 l 8.5576,-17.63044 1.29,0.61946 -10.3295,21.08565 -0.3969,-2.07313 z"
           inkscape:connector-curvature="0" />
        <path
           id="path3303"
           style="fill:#00b0f0;fill-opacity:1;fill-rule:nonzero;stroke:none"
           d="m -2330.974,-19.702009 12.6344,1.417523 c 0,0 -7.7255,-26.667146 -21.759,-38.574336 -2.7996,-2.817327 -6.2725,0 -6.2725,0 0,0 16.7792,21.705816 15.3971,37.156813"
           inkscape:connector-curvature="0" />
        <path
           id="path3307"
           style="fill:none;stroke:#373536;stroke-width:8.8595171;stroke-linecap:butt;stroke-linejoin:miter;stroke-miterlimit:4;stroke-opacity:1;stroke-dasharray:none"
           d="m -2330.974,-19.702009 12.6344,1.417523 c 0,0 -7.7255,-26.667146 -21.759,-38.574336 -2.7996,-2.817327 -6.2725,0 -6.2725,0 0,0 16.7792,21.705816 15.3971,37.156813 z"
           inkscape:connector-curvature="0" />
      </g>
      <path
         sodipodi:nodetypes="ccccccc"
         inkscape:connector-curvature="0"
         id="rect2985"
         d="m -2042.8572,300.47825 c 0,0 39.7619,-125.71429 266.7858,-151.42858 -195.8334,100 32.4999,151.42858 32.4999,151.42858 299.2858,0 598.5715,0 897.85716,0 l 0,342.85714 -1197.14286,0 z"
         style="fill:#91c9fe;fill-opacity:1;stroke:none" />
    </g>
    <rect
       style="fill:none;fill-opacity:1;stroke:#000023;stroke-opacity:1;stroke-width:7.20000114;stroke-miterlimit:4;stroke-dasharray:none"
       id="rect4436"
       width="2884.9956"
       height="1446.5385"
       x="-8735.7988"
       y="-2042.7452" />
  </g>
</svg>
